<?xml version="1.0" encoding="UTF-8" standalone="no"?>
<!DOCTYPE svg PUBLIC "-//W3C//DTD SVG 1.1//EN" "http://www.w3.org/Graphics/SVG/1.1/DTD/svg11.dtd">
<svg version="1.1" xmlns="http://www.w3.org/2000/svg" xmlns:xlink="http://www.w3.org/1999/xlink" preserveAspectRatio="xMidYMid meet" viewBox="0 0 640 640" width="640" height="640"><defs><path d="M-15.41 -15.61L662.59 -15.61L662.59 667.39L-15.41 667.39L-15.41 -15.61Z" id="a6RTCZoKVi"></path><path d="M532.08 95.14C520.3 83.29 506.66 72.54 491.21 63.39C404.52 12 295.01 29.5 246.62 102.48C198.22 175.46 229.28 276.27 315.96 327.65C331.4 336.8 347.57 343.74 363.99 348.59C309.67 293.91 295.74 215.14 335.52 155.17C375.28 95.19 456.33 72.72 532.08 95.14Z" id="a4cZp35mS"></path><linearGradient id="gradientaaRAEF7Tm" gradientUnits="userSpaceOnUse" x1="396.44" y1="88.43" x2="158.65" y2="458.91"><stop style="stop-color: #d9d9d9;stop-opacity: 1" offset="1.2%"></stop><stop style="stop-color: #bca88f;stop-opacity: 1" offset="51.9%"></stop><stop style="stop-color: #65666f;stop-opacity: 1" offset="100%"></stop></linearGradient><path d="M519.63 183.71C526.31 180.35 532.41 176.48 537.59 172.1C566.73 147.53 557.24 116.77 516.43 103.38C475.58 89.99 418.88 99.06 389.73 123.62C384.55 128 380.59 132.58 377.81 137.21C408.72 121.75 452.98 117.57 486.54 128.57C520.09 139.57 532.46 162.32 519.63 183.71Z" id="a1X1EmzgsH"></path><linearGradient id="gradientcwaOW36Di" gradientUnits="userSpaceOnUse" x1="510.95" y1="169.5" x2="372.99" y2="55.06"><stop style="stop-color: #d9d9d9;stop-opacity: 1" offset="0%"></stop><stop style="stop-color: #bca88f;stop-opacity: 1" offset="51.9%"></stop><stop style="stop-color: #064093;stop-opacity: 1" offset="99.9%"></stop><stop style="stop-color: #65666c;stop-opacity: 1" offset="100%"></stop></linearGradient><path d="M105.69 547.96C117.47 559.81 131.12 570.55 146.55 579.71C233.25 631.1 342.76 613.59 391.15 540.61C439.54 467.63 408.5 366.83 321.81 315.44C306.37 306.3 290.19 299.36 273.78 294.51C328.1 349.18 342.03 427.95 302.25 487.92C262.48 547.9 181.43 570.37 105.69 547.96Z" id="e5vVdQankG"></path><linearGradient id="gradiente2NtzkVNv" gradientUnits="userSpaceOnUse" x1="205.75" y1="622.38" x2="313.71" y2="426.08"><stop style="stop-color: #d9d9d9;stop-opacity: 1" offset="1.2%"></stop><stop style="stop-color: #bca88f;stop-opacity: 1" offset="51.9%"></stop><stop style="stop-color: #bca88f;stop-opacity: 1" offset="100%"></stop></linearGradient><path d="M102.77 404.74C94.84 408.91 87.62 413.96 81.48 419.89C46.94 453.22 58.08 501.44 106.35 527.58C154.61 553.72 221.71 547.9 256.25 514.57C262.4 508.63 267.08 502.21 270.38 495.55C233.78 514.77 181.41 514.89 141.75 493.41C102.08 471.92 87.54 435.53 102.77 404.74Z" id="cX4XXLIkt"></path><linearGradient id="gradienth10pLI795S" gradientUnits="userSpaceOnUse" x1="113.01" y1="427.66" x2="275.9" y2="621.43"><stop style="stop-color: #d9d9d9;stop-opacity: 1" offset="0%"></stop><stop style="stop-color: #bca88f;stop-opacity: 1" offset="51.9%"></stop><stop style="stop-color: #064093;stop-opacity: 1" offset="99.9%"></stop><stop style="stop-color: #65666f;stop-opacity: 1" offset="100%"></stop></linearGradient><path d="M496.91 70.45C483.76 59.83 468.93 50.53 452.54 43.03C360.6 0.92 255.69 30.58 218.23 109.28C180.75 187.98 224.92 285.9 316.85 328.01C333.23 335.51 350.02 340.7 366.77 343.76C306.09 294.78 281.7 217.12 312.5 152.45C343.29 87.77 419.64 56.26 496.91 70.45Z" id="b3NddmyHOR"></path><linearGradient id="gradientb1cZN8EhbC" gradientUnits="userSpaceOnUse" x1="364.75" y1="82.29" x2="180.11" y2="476.19"><stop style="stop-color: #d9d9d9;stop-opacity: 1" offset="1.2%"></stop><stop style="stop-color: #bca88f;stop-opacity: 1" offset="51.9%"></stop><stop style="stop-color: #65666f;stop-opacity: 1" offset="100%"></stop></linearGradient><path d="M140.86 572.64C154.01 583.26 168.85 592.56 185.22 600.06C277.17 642.17 382.08 612.51 419.54 533.81C457.01 455.12 412.86 357.2 320.92 315.09C304.55 307.6 287.75 302.41 271 299.33C331.68 348.31 356.06 425.96 325.26 490.63C294.47 555.31 218.12 586.83 140.86 572.64Z" id="b170xQeMEV"></path><linearGradient id="gradienta5C5C7w32" gradientUnits="userSpaceOnUse" x1="249.04" y1="636.44" x2="328.06" y2="427.2"><stop style="stop-color: #d9d9d9;stop-opacity: 1" offset="1.2%"></stop><stop style="stop-color: #bca88f;stop-opacity: 1" offset="51.9%"></stop><stop style="stop-color: #bca88f;stop-opacity: 1" offset="100%"></stop></linearGradient><path d="M510.22 191.22C516.91 187.86 523.01 183.99 528.18 179.61C557.33 155.04 547.84 124.28 507.02 110.89C466.17 97.51 409.47 106.57 380.33 131.13C375.14 135.51 371.19 140.09 368.41 144.72C399.31 129.26 443.58 125.09 477.13 136.08C510.68 147.08 523.05 169.83 510.22 191.22Z" id="ea6p6RAC3"></path><linearGradient id="gradienta9nHOTpCD" gradientUnits="userSpaceOnUse" x1="501.54" y1="177.01" x2="363.58" y2="62.58"><stop style="stop-color: #d9d9d9;stop-opacity: 1" offset="0%"></stop><stop style="stop-color: #bca88f;stop-opacity: 1" offset="51.9%"></stop><stop style="stop-color: #064093;stop-opacity: 1" offset="99.9%"></stop><stop style="stop-color: #65666c;stop-opacity: 1" offset="100%"></stop></linearGradient><path d="M119.69 392.73C112.38 396.85 105.73 401.85 100.12 407.73C68.51 440.81 79.65 489.02 124.98 515.43C170.31 541.82 232.67 536.41 264.28 503.33C269.91 497.44 274.16 491.06 277.12 484.42C243.38 503.4 194.63 503.2 157.38 481.51C120.12 459.81 106.01 423.38 119.69 392.73Z" id="b7DhXiqme1"></path><linearGradient id="gradiente4kxFZND5v" gradientUnits="userSpaceOnUse" x1="129.58" y1="415.68" x2="284.28" y2="610.16"><stop style="stop-color: #d9d9d9;stop-opacity: 1" offset="0%"></stop><stop style="stop-color: #bca88f;stop-opacity: 1" offset="51.9%"></stop><stop style="stop-color: #064093;stop-opacity: 1" offset="99.9%"></stop><stop style="stop-color: #65666f;stop-opacity: 1" offset="100%"></stop></linearGradient></defs><g><g><g><use xlink:href="#a6RTCZoKVi" opacity="1" fill="#343a3c" fill-opacity="1"></use></g><g><use xlink:href="#a4cZp35mS" opacity="1" fill="url(#gradientaaRAEF7Tm)"></use><g><use xlink:href="#a4cZp35mS" opacity="1" fill-opacity="0" stroke="#000000" stroke-width="1" stroke-opacity="0"></use></g></g><g><use xlink:href="#a1X1EmzgsH" opacity="1" fill="url(#gradientcwaOW36Di)"></use><g><use xlink:href="#a1X1EmzgsH" opacity="1" fill-opacity="0" stroke="#000000" stroke-width="1" stroke-opacity="0"></use></g></g><g><use xlink:href="#e5vVdQankG" opacity="1" fill="url(#gradiente2NtzkVNv)"></use><g><use xlink:href="#e5vVdQankG" opacity="1" fill-opacity="0" stroke="#000000" stroke-width="1" stroke-opacity="0"></use></g></g><g><use xlink:href="#cX4XXLIkt" opacity="1" fill="url(#gradienth10pLI795S)"></use><g><use xlink:href="#cX4XXLIkt" opacity="1" fill-opacity="0" stroke="#000000" stroke-width="1" stroke-opacity="0"></use></g></g><g><use xlink:href="#b3NddmyHOR" opacity="1" fill="url(#gradientb1cZN8EhbC)"></use><g><use xlink:href="#b3NddmyHOR" opacity="1" fill-opacity="0" stroke="#000000" stroke-width="1" stroke-opacity="0"></use></g></g><g><use xlink:href="#b170xQeMEV" opacity="1" fill="url(#gradienta5C5C7w32)"></use><g><use xlink:href="#b170xQeMEV" opacity="1" fill-opacity="0" stroke="#000000" stroke-width="1" stroke-opacity="0"></use></g></g><g><use xlink:href="#ea6p6RAC3" opacity="1" fill="url(#gradienta9nHOTpCD)"></use><g><use xlink:href="#ea6p6RAC3" opacity="1" fill-opacity="0" stroke="#000000" stroke-width="1" stroke-opacity="0"></use></g></g><g><use xlink:href="#b7DhXiqme1" opacity="1" fill="url(#gradiente4kxFZND5v)"></use><g><use xlink:href="#b7DhXiqme1" opacity="1" fill-opacity="0" stroke="#000000" stroke-width="1" stroke-opacity="0"></use></g></g></g></g></svg>